<?xml version="1.0" standalone="no"?>
<!DOCTYPE svg PUBLIC "-//W3C//DTD SVG 20010904//EN"
 "http://www.w3.org/TR/2001/REC-SVG-20010904/DTD/svg10.dtd">
<svg version="1.0" xmlns="http://www.w3.org/2000/svg"
 width="260.000000pt" height="260.000000pt" viewBox="0 0 260.000000 260.000000"
 preserveAspectRatio="xMidYMid meet">
<metadata>
Created by potrace 1.14, written by Peter Selinger 2001-2017
</metadata>
<g transform="translate(0.000000,260.000000) scale(0.100000,-0.100000)"
fill="#000000" stroke="none">
<path d="M40 1300 l0 -1260 1260 0 1260 0 0 1260 0 1260 -1260 0 -1260 0 0
-1260z m2067 772 c182 -58 272 -178 261 -342 -8 -112 -67 -199 -176 -258 l-53
-29 75 -37 c82 -40 139 -96 177 -174 20 -40 24 -63 24 -147 0 -91 -3 -106 -31
-165 -78 -164 -223 -236 -499 -247 -77 -3 -188 -2 -248 2 l-107 7 2 696 3 697
85 12 c48 7 159 10 255 9 137 -3 182 -7 232 -24z m-1025 -682 c131 -382 238
-698 238 -702 0 -5 -44 -8 -98 -8 l-97 0 -75 223 -75 222 -250 0 -249 0 -72
-220 -71 -220 -97 -3 c-53 -1 -96 -1 -96 0 0 3 464 1367 475 1396 3 9 33 12
117 10 l112 -3 238 -695z"/>
<path d="M1755 1951 l-40 -6 -3 -224 -2 -223 137 4 c116 3 146 8 188 27 99 44
145 109 145 205 0 66 -12 102 -48 139 -68 72 -216 103 -377 78z"/>
<path d="M1710 1093 l0 -270 78 -7 c202 -16 354 40 408 151 58 117 24 262 -76
325 -71 45 -133 60 -277 65 l-133 6 0 -270z"/>
<path d="M696 1820 c-16 -58 -61 -201 -102 -319 -41 -118 -74 -218 -74 -223 0
-4 92 -8 205 -8 113 0 205 3 205 8 0 4 -38 122 -85 262 -46 140 -93 284 -103
320 l-18 64 -28 -104z"/>
</g>
</svg>
